<svg width="40" height="40" fill="none" xmlns="http://www.w3.org/2000/svg"><path d="M38.97 29.503l-4.972-4.973a3.52 3.52 0 00-4.972 0l-2.26 2.26a2.667 2.667 0 01-3.767 0l-9.797-9.805a2.662 2.662 0 010-3.767l2.26-2.26a3.514 3.514 0 00-.002-4.974L10.49 1.03a3.52 3.52 0 00-4.97-.004L3.708 2.821c-4.943 4.944-4.943 12.988 0 17.931l15.523 15.531c4.955 4.956 12.976 4.956 17.931 0l1.809-1.808a3.52 3.52 0 000-4.972zM7.175 2.686a1.174 1.174 0 011.66.001l4.97 4.956a1.17 1.17 0 010 1.657l-.829.83L6.35 3.502l.824-.817zm13.715 31.94L5.366 19.095a10.305 10.305 0 01-.647-13.907l6.607 6.607a5.003 5.003 0 00.218 6.848l9.796 9.804a5.003 5.003 0 006.849.219l6.606 6.607a10.285 10.285 0 01-13.906-.647zm16.424-1.808l-.829.828-6.63-6.63.829-.828a1.174 1.174 0 011.658 0l4.972 4.972c.457.457.457 1.2 0 1.658z" fill="#fff"/></svg>