<svg width="23" height="23" fill="none" xmlns="http://www.w3.org/2000/svg"><path d="M23 4.121c-.861.382-1.726.67-2.684.768.958-.577 1.726-1.535 2.108-2.59-.959.576-1.917.958-2.97 1.152-.957-.958-2.204-1.534-3.544-1.534a4.703 4.703 0 00-4.698 4.694c0 .385 0 .767.097 1.056-3.93-.191-7.378-2.014-9.68-4.89-.48.674-.67 1.535-.67 2.396 0 1.633.86 3.07 2.107 3.931-.767-.097-1.531-.288-2.108-.576v.097c0 2.298 1.629 4.215 3.736 4.6-.381.094-.763.191-1.243.191-.288 0-.576 0-.864-.097.576 1.917 2.302 3.26 4.41 3.26-1.629 1.247-3.643 2.011-5.848 2.011-.382 0-.767 0-1.149-.094a13.427 13.427 0 007.188 2.108c8.722 0 13.416-7.188 13.416-13.417v-.576C21.563 5.94 22.33 5.08 23 4.12z" fill="#fff"/></svg>